<svg xmlns="http://www.w3.org/2000/svg" xmlns:xlink="http://www.w3.org/1999/xlink" zoomAndPan="magnify" preserveAspectRatio="xMidYMid meet" version="1.0" viewBox="18.67 135.77 317.77 78.02"><defs><g/><clipPath id="ef852b7e43"><path d="M 18.671875 135.773438 L 93.671875 135.773438 L 93.671875 213.773438 L 18.671875 213.773438 Z M 18.671875 135.773438 " clip-rule="nonzero"/></clipPath></defs><g clip-path="url(#ef852b7e43)"><path fill="#0cc0df" d="M 72.851562 174.453125 L 93.675781 174.453125 L 88.835938 169.457031 L 88.691406 169.3125 L 82.542969 162.96875 L 82.542969 141.222656 L 65.675781 141.222656 L 65.675781 145.5625 C 63.0625 142.871094 60.070312 139.785156 57.988281 137.640625 L 56.1875 135.78125 L 54.386719 137.640625 C 52.386719 139.707031 28.886719 163.941406 23.683594 169.3125 C 23.632812 169.363281 23.585938 169.410156 23.542969 169.457031 C 23.195312 169.8125 22.945312 170.074219 22.800781 170.222656 L 18.695312 174.453125 L 34.292969 174.453125 L 34.292969 213.777344 L 39.300781 213.777344 L 39.300781 169.457031 L 30.507812 169.457031 C 30.554688 169.410156 30.601562 169.363281 30.652344 169.3125 C 37.671875 162.066406 51.171875 148.144531 56.191406 142.96875 C 59.648438 146.535156 64.234375 151.261719 66.378906 153.476562 L 70.683594 157.917969 L 70.683594 146.21875 L 77.53125 146.21875 L 77.53125 164.988281 L 81.726562 169.3125 L 81.871094 169.457031 L 70.71875 169.457031 L 60.863281 179.695312 L 86.144531 213.789062 L 92.375 213.789062 L 67.402344 180.113281 Z M 56.015625 184.472656 L 46.714844 194.09375 L 46.714844 213.777344 L 51.722656 213.777344 L 51.722656 196.109375 L 55.480469 192.21875 L 71.21875 213.777344 L 77.425781 213.789062 Z M 56.199219 169.457031 L 51.722656 174.269531 L 51.722656 169.457031 L 46.714844 169.457031 L 46.714844 186.988281 L 63.03125 169.457031 L 56.199219 169.457031 " fill-opacity="1" fill-rule="nonzero"/></g><g fill="#0cc0df" fill-opacity="1"><g transform="translate(101.373432, 190.951468)"><g><path d="M 2.769531 0 L 8.011719 0 L 8.011719 -9.328125 L 10.777344 -9.328125 C 11.207031 -9.328125 11.570312 -9.328125 11.964844 -9.363281 L 16.910156 0 L 23.007812 0 L 16.777344 -11.304688 C 17.699219 -12.195312 18.394531 -13.351562 18.988281 -14.867188 L 22.183594 -23.074219 L 16.515625 -23.074219 L 14.339844 -17.074219 C 13.546875 -14.898438 12.59375 -14.207031 9.988281 -14.207031 L 8.011719 -14.207031 L 8.011719 -23.074219 L 2.769531 -23.074219 Z M 2.769531 0 "/></g></g></g><g fill="#0cc0df" fill-opacity="1"><g transform="translate(128.631249, 190.951468)"><g><path d="M 0.296875 0 L 5.898438 0 L 7.449219 -3.988281 L 16.613281 -3.988281 L 18.164062 0 L 23.765625 0 L 14.601562 -23.074219 L 9.460938 -23.074219 Z M 8.800781 -8.109375 L 12.03125 -16.546875 L 15.292969 -8.109375 Z M 8.800781 -8.109375 "/></g></g></g><g fill="#0cc0df" fill-opacity="1"><g transform="translate(155.987946, 190.951468)"><g><path d="M 2.769531 0 L 13.613281 0 C 18.292969 0 21.457031 -2.570312 21.457031 -6.460938 C 21.457031 -8.933594 20.171875 -10.910156 17.996094 -11.867188 C 19.746094 -12.886719 20.765625 -14.703125 20.765625 -16.878906 C 20.765625 -20.667969 17.765625 -23.074219 13.085938 -23.074219 L 2.769531 -23.074219 Z M 7.945312 -4.152344 L 7.945312 -9.691406 L 12.824219 -9.691406 C 14.898438 -9.691406 16.085938 -8.667969 16.085938 -6.921875 C 16.085938 -5.175781 14.898438 -4.152344 12.824219 -4.152344 Z M 7.945312 -13.679688 L 7.945312 -18.921875 L 12.296875 -18.921875 C 14.304688 -18.921875 15.425781 -17.996094 15.425781 -16.316406 C 15.425781 -14.636719 14.304688 -13.679688 12.296875 -13.679688 Z M 7.945312 -13.679688 "/></g></g></g><g fill="#0cc0df" fill-opacity="1"><g transform="translate(181.993322, 190.951468)"><g><path d="M 12.195312 0.460938 C 18.195312 0.460938 21.855469 -3.296875 21.855469 -9.492188 L 21.855469 -23.074219 L 16.613281 -23.074219 L 16.613281 -9.855469 C 16.613281 -6.328125 15.128906 -4.515625 12.195312 -4.515625 C 9.261719 -4.515625 7.777344 -6.328125 7.777344 -9.855469 L 7.777344 -23.074219 L 2.539062 -23.074219 L 2.539062 -9.492188 C 2.539062 -3.296875 6.195312 0.460938 12.195312 0.460938 Z M 12.195312 0.460938 "/></g></g></g><g fill="#0cc0df" fill-opacity="1"><g transform="translate(209.679603, 190.951468)"><g><path d="M 2.769531 0 L 18.097656 0 L 18.097656 -4.910156 L 8.011719 -4.910156 L 8.011719 -23.074219 L 2.769531 -23.074219 Z M 2.769531 0 "/></g></g></g><g fill="#00bf63" fill-opacity="1"><g transform="translate(231.958592, 190.951468)"><g><path d="M 10.8125 0.460938 C 16.285156 0.460938 19.644531 -2.144531 19.644531 -6.492188 C 19.644531 -10.152344 17.238281 -12.328125 11.503906 -13.679688 C 7.976562 -14.503906 6.757812 -15.394531 6.757812 -16.8125 C 6.757812 -18.328125 8.109375 -19.25 10.316406 -19.25 C 12.722656 -19.25 14.175781 -17.996094 14.175781 -15.921875 L 19.21875 -15.921875 C 19.21875 -20.570312 15.722656 -23.535156 10.25 -23.535156 C 4.945312 -23.535156 1.648438 -20.929688 1.648438 -16.710938 C 1.648438 -12.953125 4.1875 -10.714844 9.59375 -9.558594 C 12.855469 -8.867188 14.339844 -7.910156 14.339844 -6.296875 C 14.339844 -4.746094 12.953125 -3.855469 10.777344 -3.855469 C 8.242188 -3.855469 6.59375 -5.140625 6.59375 -7.351562 L 1.449219 -7.351562 C 1.449219 -2.570312 5.011719 0.460938 10.8125 0.460938 Z M 10.8125 0.460938 "/></g></g></g><g fill="#00bf63" fill-opacity="1"><g transform="translate(256.381936, 190.951468)"><g><path d="M 17.042969 0 L 22.28125 0 L 22.28125 -23.074219 L 17.042969 -23.074219 L 17.042969 -14.207031 L 8.011719 -14.207031 L 8.011719 -23.074219 L 2.769531 -23.074219 L 2.769531 0 L 8.011719 0 L 8.011719 -9.296875 L 17.042969 -9.296875 Z M 17.042969 0 "/></g></g></g><g fill="#00bf63" fill-opacity="1"><g transform="translate(284.727402, 190.951468)"><g><path d="M 13.710938 0.460938 C 20.929688 0.460938 26.039062 -4.484375 26.039062 -11.535156 C 26.039062 -18.589844 20.929688 -23.535156 13.710938 -23.535156 C 6.492188 -23.535156 1.417969 -18.589844 1.417969 -11.535156 C 1.417969 -4.484375 6.492188 0.460938 13.710938 0.460938 Z M 6.757812 -11.535156 C 6.757812 -15.691406 9.625 -18.558594 13.710938 -18.558594 C 17.832031 -18.558594 20.667969 -15.691406 20.667969 -11.535156 C 20.667969 -7.382812 17.832031 -4.515625 13.710938 -4.515625 C 9.625 -4.515625 6.757812 -7.382812 6.757812 -11.535156 Z M 6.757812 -11.535156 "/></g></g></g><g fill="#00bf63" fill-opacity="1"><g transform="translate(315.478878, 190.951468)"><g><path d="M 2.769531 0 L 8.011719 0 L 8.011719 -6.429688 L 11.800781 -6.429688 C 17.371094 -6.429688 20.964844 -9.691406 20.964844 -14.734375 C 20.964844 -19.8125 17.371094 -23.074219 11.800781 -23.074219 L 2.769531 -23.074219 Z M 7.976562 -10.945312 L 7.976562 -18.492188 L 11.371094 -18.492188 C 14.109375 -18.492188 15.625 -17.109375 15.625 -14.703125 C 15.625 -12.296875 14.109375 -10.945312 11.371094 -10.945312 Z M 7.976562 -10.945312 "/></g></g></g><g fill="#00bf63" fill-opacity="1"><g transform="translate(101.373432, 213.037779)"><g><path d="M 5.226562 0.203125 C 7.613281 0.203125 9.15625 -0.96875 9.15625 -2.871094 C 9.15625 -4.476562 8.082031 -5.445312 5.289062 -6.128906 C 3.167969 -6.644531 2.464844 -7.207031 2.464844 -8.113281 C 2.464844 -9.15625 3.402344 -9.8125 4.960938 -9.8125 C 6.566406 -9.8125 7.566406 -9 7.597656 -7.691406 L 8.953125 -7.691406 C 8.9375 -9.8125 7.410156 -11.121094 4.960938 -11.121094 C 2.574219 -11.121094 1.0625 -9.953125 1.0625 -8.113281 C 1.0625 -6.425781 2.261719 -5.492188 4.945312 -4.851562 C 6.910156 -4.382812 7.738281 -3.835938 7.738281 -2.824219 C 7.738281 -1.746094 6.769531 -1.109375 5.226562 -1.109375 C 3.527344 -1.109375 2.339844 -1.949219 2.308594 -3.355469 L 0.9375 -3.355469 C 0.953125 -1.21875 2.621094 0.203125 5.226562 0.203125 Z M 5.226562 0.203125 "/></g></g></g><g fill="#00bf63" fill-opacity="1"><g transform="translate(113.025072, 213.037779)"><g><path d="M 8.75 0 L 10.125 0 L 10.125 -10.921875 L 8.75 -10.921875 L 8.75 -6.222656 L 2.964844 -6.222656 L 2.964844 -10.921875 L 1.589844 -10.921875 L 1.589844 0 L 2.964844 0 L 2.964844 -4.914062 L 8.75 -4.914062 Z M 8.75 0 "/></g></g></g><g fill="#00bf63" fill-opacity="1"><g transform="translate(126.298855, 213.037779)"><g><path d="M 6.550781 0.203125 C 9.875 0.203125 12.214844 -2.136719 12.214844 -5.460938 C 12.214844 -8.78125 9.875 -11.121094 6.550781 -11.121094 C 3.230469 -11.121094 0.90625 -8.78125 0.90625 -5.460938 C 0.90625 -2.136719 3.230469 0.203125 6.550781 0.203125 Z M 2.308594 -5.460938 C 2.308594 -8.003906 4.039062 -9.75 6.550781 -9.75 C 9.0625 -9.75 10.796875 -8.003906 10.796875 -5.460938 C 10.796875 -2.917969 9.0625 -1.171875 6.550781 -1.171875 C 4.039062 -1.171875 2.308594 -2.917969 2.308594 -5.460938 Z M 2.308594 -5.460938 "/></g></g></g><g fill="#00bf63" fill-opacity="1"><g transform="translate(140.960826, 213.037779)"><g><path d="M 1.589844 0 L 2.964844 0 L 2.964844 -3.589844 L 5.289062 -3.589844 C 7.753906 -3.589844 9.34375 -5.007812 9.34375 -7.253906 C 9.34375 -9.484375 7.753906 -10.921875 5.289062 -10.921875 L 1.589844 -10.921875 Z M 2.964844 -4.867188 L 2.964844 -9.609375 L 5.257812 -9.609375 C 7.019531 -9.609375 7.941406 -8.796875 7.941406 -7.238281 C 7.941406 -5.679688 7.019531 -4.867188 5.257812 -4.867188 Z M 2.964844 -4.867188 "/></g></g></g><g fill="#00bf63" fill-opacity="1"><g transform="translate(152.487681, 213.037779)"><g/></g></g><g fill="#0cc0df" fill-opacity="1"><g transform="translate(157.904679, 213.037779)"><g><path d="M 3.835938 0 L 5.117188 0 L 8.394531 -8.84375 L 10.203125 -3.976562 L 11.683594 0 L 12.964844 0 L 16.519531 -10.921875 L 15.085938 -10.921875 L 12.277344 -2.183594 L 9.046875 -10.921875 L 7.753906 -10.921875 L 4.523438 -2.199219 L 3.246094 -6.207031 L 1.730469 -10.921875 L 0.296875 -10.921875 Z M 3.835938 0 "/></g></g></g><g fill="#0cc0df" fill-opacity="1"><g transform="translate(176.278875, 213.037779)"><g><path d="M 1.589844 0 L 2.964844 0 L 2.964844 -10.921875 L 1.589844 -10.921875 Z M 1.589844 0 "/></g></g></g><g fill="#0cc0df" fill-opacity="1"><g transform="translate(182.393371, 213.037779)"><g><path d="M 4.226562 0 L 5.601562 0 L 5.601562 -9.609375 L 9.28125 -9.609375 L 9.28125 -10.921875 L 0.53125 -10.921875 L 0.53125 -9.609375 L 4.226562 -9.609375 Z M 4.226562 0 "/></g></g></g><g fill="#0cc0df" fill-opacity="1"><g transform="translate(193.77985, 213.037779)"><g><path d="M 8.75 0 L 10.125 0 L 10.125 -10.921875 L 8.75 -10.921875 L 8.75 -6.222656 L 2.964844 -6.222656 L 2.964844 -10.921875 L 1.589844 -10.921875 L 1.589844 0 L 2.964844 0 L 2.964844 -4.914062 L 8.75 -4.914062 Z M 8.75 0 "/></g></g></g><g fill="#0cc0df" fill-opacity="1"><g transform="translate(207.053634, 213.037779)"><g/></g></g><g fill="#0cc0df" fill-opacity="1"><g transform="translate(212.481841, 213.037779)"><g><path d="M 6.425781 0.203125 C 9.078125 0.203125 11.230469 -1.402344 11.886719 -3.835938 L 10.4375 -3.835938 C 9.875 -2.199219 8.332031 -1.171875 6.472656 -1.171875 C 4.039062 -1.171875 2.308594 -2.933594 2.308594 -5.460938 C 2.308594 -7.988281 4.039062 -9.75 6.472656 -9.75 C 8.285156 -9.75 9.765625 -8.78125 10.328125 -7.207031 L 11.792969 -7.207031 C 11.074219 -9.609375 9 -11.121094 6.425781 -11.121094 C 3.214844 -11.121094 0.90625 -8.75 0.90625 -5.460938 C 0.90625 -2.167969 3.214844 0.203125 6.425781 0.203125 Z M 6.425781 0.203125 "/></g></g></g><g fill="#0cc0df" fill-opacity="1"><g transform="translate(226.769468, 213.037779)"><g><path d="M 6.550781 0.203125 C 9.875 0.203125 12.214844 -2.136719 12.214844 -5.460938 C 12.214844 -8.78125 9.875 -11.121094 6.550781 -11.121094 C 3.230469 -11.121094 0.90625 -8.78125 0.90625 -5.460938 C 0.90625 -2.136719 3.230469 0.203125 6.550781 0.203125 Z M 2.308594 -5.460938 C 2.308594 -8.003906 4.039062 -9.75 6.550781 -9.75 C 9.0625 -9.75 10.796875 -8.003906 10.796875 -5.460938 C 10.796875 -2.917969 9.0625 -1.171875 6.550781 -1.171875 C 4.039062 -1.171875 2.308594 -2.917969 2.308594 -5.460938 Z M 2.308594 -5.460938 "/></g></g></g><g fill="#0cc0df" fill-opacity="1"><g transform="translate(241.431443, 213.037779)"><g><path d="M 1.589844 0 L 2.949219 0 L 2.949219 -8.546875 L 8.984375 0 L 10.265625 0 L 10.265625 -10.921875 L 8.921875 -10.921875 L 8.921875 -2.371094 L 2.886719 -10.921875 L 1.589844 -10.921875 Z M 1.589844 0 "/></g></g></g><g fill="#0cc0df" fill-opacity="1"><g transform="translate(254.845605, 213.037779)"><g><path d="M 1.589844 0 L 2.964844 0 L 2.964844 -4.601562 L 7.441406 -4.601562 L 7.441406 -5.867188 L 2.964844 -5.867188 L 2.964844 -9.640625 L 7.847656 -9.640625 L 7.847656 -10.921875 L 1.589844 -10.921875 Z M 1.589844 0 "/></g></g></g><g fill="#0cc0df" fill-opacity="1"><g transform="translate(265.109055, 213.037779)"><g><path d="M 1.589844 0 L 2.964844 0 L 2.964844 -10.921875 L 1.589844 -10.921875 Z M 1.589844 0 "/></g></g></g><g fill="#0cc0df" fill-opacity="1"><g transform="translate(271.223553, 213.037779)"><g><path d="M 1.589844 0 L 5.367188 0 C 8.71875 0 10.96875 -2.230469 10.96875 -5.460938 C 10.96875 -8.6875 8.71875 -10.921875 5.367188 -10.921875 L 1.589844 -10.921875 Z M 2.964844 -1.308594 L 2.964844 -9.609375 L 5.304688 -9.609375 C 7.847656 -9.609375 9.5625 -7.941406 9.5625 -5.460938 C 9.5625 -2.980469 7.863281 -1.308594 5.367188 -1.308594 Z M 2.964844 -1.308594 "/></g></g></g><g fill="#0cc0df" fill-opacity="1"><g transform="translate(284.653309, 213.037779)"><g><path d="M 1.589844 0 L 8.394531 0 L 8.394531 -1.277344 L 2.964844 -1.277344 L 2.964844 -4.929688 L 7.832031 -4.929688 L 7.832031 -6.191406 L 2.964844 -6.191406 L 2.964844 -9.640625 L 8.222656 -9.640625 L 8.222656 -10.921875 L 1.589844 -10.921875 Z M 1.589844 0 "/></g></g></g><g fill="#0cc0df" fill-opacity="1"><g transform="translate(295.618648, 213.037779)"><g><path d="M 1.589844 0 L 2.949219 0 L 2.949219 -8.546875 L 8.984375 0 L 10.265625 0 L 10.265625 -10.921875 L 8.921875 -10.921875 L 8.921875 -2.371094 L 2.886719 -10.921875 L 1.589844 -10.921875 Z M 1.589844 0 "/></g></g></g><g fill="#0cc0df" fill-opacity="1"><g transform="translate(309.032816, 213.037779)"><g><path d="M 6.425781 0.203125 C 9.078125 0.203125 11.230469 -1.402344 11.886719 -3.835938 L 10.4375 -3.835938 C 9.875 -2.199219 8.332031 -1.171875 6.472656 -1.171875 C 4.039062 -1.171875 2.308594 -2.933594 2.308594 -5.460938 C 2.308594 -7.988281 4.039062 -9.75 6.472656 -9.75 C 8.285156 -9.75 9.765625 -8.78125 10.328125 -7.207031 L 11.792969 -7.207031 C 11.074219 -9.609375 9 -11.121094 6.425781 -11.121094 C 3.214844 -11.121094 0.90625 -8.75 0.90625 -5.460938 C 0.90625 -2.167969 3.214844 0.203125 6.425781 0.203125 Z M 6.425781 0.203125 "/></g></g></g><g fill="#0cc0df" fill-opacity="1"><g transform="translate(323.320443, 213.037779)"><g><path d="M 1.589844 0 L 8.394531 0 L 8.394531 -1.277344 L 2.964844 -1.277344 L 2.964844 -4.929688 L 7.832031 -4.929688 L 7.832031 -6.191406 L 2.964844 -6.191406 L 2.964844 -9.640625 L 8.222656 -9.640625 L 8.222656 -10.921875 L 1.589844 -10.921875 Z M 1.589844 0 "/></g></g></g></svg>